<?xml version="1.0" encoding="UTF-8" standalone="no" ?>
<!DOCTYPE svg PUBLIC "-//W3C//DTD SVG 1.1//EN" "http://www.w3.org/Graphics/SVG/1.1/DTD/svg11.dtd">
<svg xmlns="http://www.w3.org/2000/svg" xmlns:xlink="http://www.w3.org/1999/xlink" version="1.1" width="1080" height="1080" viewBox="0 0 1080 1080" xml:space="preserve">
<desc>Created with Fabric.js 5.2.4</desc>
<defs>
</defs>
<rect x="0" y="0" width="100%" height="100%" fill="transparent"></rect>
<g transform="matrix(0 0 0 0 0 0)" id="6fca8221-6ba7-4422-9087-e640581a2534"  >
</g>
<g transform="matrix(1 0 0 1 540 540)" id="764146f2-33af-41fc-a13c-6ee7e2fdd097"  >
<rect style="stroke: none; stroke-width: 1; stroke-dasharray: none; stroke-linecap: butt; stroke-dashoffset: 0; stroke-linejoin: miter; stroke-miterlimit: 4; fill: rgb(120,100,100); fill-rule: nonzero; opacity: 1;" vector-effect="non-scaling-stroke"  x="-540" y="-540" rx="0" ry="0" width="1080" height="1080" />
</g>
<g transform="matrix(0 0.56 -0.52 0 523.2 540)"  >
<path style="stroke: rgb(0,0,0); stroke-width: 4; stroke-dasharray: none; stroke-linecap: butt; stroke-dashoffset: 0; stroke-linejoin: miter; stroke-miterlimit: 4; fill: rgb(0,0,0); fill-rule: nonzero; opacity: 1;" vector-effect="non-scaling-stroke"  transform=" translate(-980, -969.69)" d="M 771 1929 C 493 1882 194 1633 80 1352 C 24 1213 15 1159 15 970 C 15 816 18 785 38 717 C 114 461 268 262 495 128 C 715 -2 1014 -35 1270 42 C 1523 119 1750 316 1860 554 C 1933 713 1945 770 1945 975 C 1945 1133 1942 1165 1922 1235 C 1821 1588 1513 1876 1180 1929 C 1102 1942 847 1941 771 1929 z M 1166 1909 C 1456 1846 1700 1659 1824 1406 C 1908 1236 1931 1129 1925 940 C 1921 816 1908 749 1863 622 L 1844 568 L 1800 617 C 1776 643 1715 710 1664 765 C 1614 820 1562 877 1549 891 C 1536 906 1477 969 1417 1032 C 1358 1095 1300 1160 1287 1177 C 1263 1209 1204 1274 1125 1356 C 1068 1416 1005 1440 925 1434 C 775 1423 724 1345 695 1084 C 682 963 722 697 774 567 C 789 529 815 536 815 578 C 815 595 818 610 822 610 C 827 610 830 624 830 641 C 830 658 846 712 865 760 C 884 808 907 867 915 891 C 932 939 990 1040 1001 1040 C 1005 1040 1008 1030 1008 1018 C 1009 1005 1014 950 1019 895 C 1034 752 1038 721 1045 681 C 1048 661 1052 632 1055 615 C 1060 575 1104 455 1126 422 C 1177 345 1294 209 1344 171 C 1375 147 1397 124 1393 120 C 1385 114 1306 83 1245 62 C 1120 20 906 14 765 49 C 410 138 131 422 52 774 C 30 874 30 1072 53 1179 C 109 1441 289 1678 534 1815 C 608 1856 763 1908 845 1920 C 941 1933 1077 1929 1166 1909 z M 1095 1356 C 1114 1342 1139 1315 1151 1298 C 1174 1265 1214 1220 1301 1132 C 1326 1106 1364 1063 1386 1035 C 1407 1008 1438 974 1454 960 C 1498 923 1543 875 1620 785 C 1658 741 1721 671 1759 630 C 1798 589 1830 551 1830 547 C 1830 543 1805 501 1774 455 C 1709 356 1581 230 1492 176 L 1430 138 L 1362 192 C 1278 258 1276 260 1260 290 C 1253 304 1227 340 1203 372 C 1115 484 1083 584 1061 820 C 1049 942 1021 1080 1008 1080 C 1002 1080 982 1064 964 1045 C 941 1020 923 983 901 916 C 885 865 862 804 851 781 C 839 758 824 714 816 682 C 802 619 776 603 773 655 C 773 672 760 731 746 787 C 687 1018 733 1347 831 1389 C 849 1397 883 1403 907 1402 C 930 1402 952 1406 955 1410 C 962 1422 1056 1386 1095 1356 z" stroke-linecap="round" />
</g>
<g transform="matrix(0 0 0 0 0 0)"  >
<g style=""   >
</g>
</g>
</svg>